<svg width="99" height="108" viewBox="0 0 99 108" fill="none" xmlns="http://www.w3.org/2000/svg">
<g clip-path="url(#clip0_195_24)">
<path d="M49 14C26.91 14 9 31.91 9 54C9 74.0533 23.7733 90.6133 43.02 93.5067V64.6H33.1233V54.0867H43.02V47.09C43.02 35.5067 48.6633 30.4233 58.29 30.4233C62.9 30.4233 65.34 30.7667 66.4933 30.92V40.0967H59.9267C55.84 40.0967 54.4133 43.9733 54.4133 48.34V54.0867H66.39L64.7667 64.6H54.4133V93.59C73.9367 90.9433 89 74.25 89 54C89 31.91 71.09 14 49 14Z" fill="white"/>
</g>
<defs>
<clipPath id="clip0_195_24">
<rect width="99" height="108" fill="white"/>
</clipPath>
</defs>
</svg>
