<svg width="94" height="94" viewBox="0 0 94 94" fill="none" xmlns="http://www.w3.org/2000/svg">
<path d="M67.915 21.385C66.9854 21.385 66.0767 21.6607 65.3038 22.1771C64.5309 22.6936 63.9285 23.4276 63.5728 24.2864C63.217 25.1452 63.1239 26.0903 63.3053 27.002C63.4867 27.9137 63.9343 28.7511 64.5916 29.4084C65.2489 30.0658 66.0864 30.5134 66.9981 30.6947C67.9098 30.8761 68.8548 30.783 69.7136 30.4273C70.5724 30.0715 71.3065 29.4691 71.8229 28.6962C72.3393 27.9233 72.615 27.0146 72.615 26.085C72.615 24.8385 72.1198 23.6431 71.2384 22.7616C70.357 21.8802 69.1615 21.385 67.915 21.385ZM85.9317 30.8634C85.8555 27.6137 85.2469 24.3985 84.13 21.3459C83.1341 18.734 81.5841 16.3689 79.5867 14.4134C77.6472 12.4058 75.2766 10.8656 72.6542 9.90921C69.6096 8.75834 66.3908 8.13578 63.1367 8.06837C58.985 7.83337 57.6533 7.83337 47 7.83337C36.3467 7.83337 35.015 7.83337 30.8633 8.06837C27.6092 8.13578 24.3904 8.75834 21.3458 9.90921C18.7282 10.8752 16.3597 12.4142 14.4133 14.4134C12.4057 16.3528 10.8655 18.7234 9.90916 21.3459C8.75829 24.3905 8.13573 27.6092 8.06833 30.8634C7.83333 35.015 7.83333 36.3467 7.83333 47C7.83333 57.6534 7.83333 58.985 8.06833 63.1367C8.13573 66.3909 8.75829 69.6096 9.90916 72.6542C10.8655 75.2767 12.4057 77.6473 14.4133 79.5867C16.3597 81.5859 18.7282 83.1248 21.3458 84.0909C24.3904 85.2417 27.6092 85.8643 30.8633 85.9317C35.015 86.1667 36.3467 86.1667 47 86.1667C57.6533 86.1667 58.985 86.1667 63.1367 85.9317C66.3908 85.8643 69.6096 85.2417 72.6542 84.0909C75.2766 83.1345 77.6472 81.5943 79.5867 79.5867C81.5929 77.6385 83.1443 75.2713 84.13 72.6542C85.2469 69.6015 85.8555 66.3864 85.9317 63.1367C85.9317 58.985 86.1667 57.6534 86.1667 47C86.1667 36.3467 86.1667 35.015 85.9317 30.8634ZM78.8817 62.6667C78.8531 65.1529 78.4029 67.6162 77.55 69.9517C76.9246 71.6562 75.9202 73.1964 74.6125 74.4559C73.3421 75.7504 71.8051 76.7527 70.1083 77.3934C67.7728 78.2462 65.3095 78.6965 62.8233 78.725C58.9067 78.9209 57.4575 78.96 47.1567 78.96C36.8558 78.96 35.4067 78.96 31.49 78.725C28.9085 78.7734 26.338 78.3759 23.8917 77.55C22.2693 76.8767 20.8028 75.8768 19.5833 74.6125C18.2833 73.3543 17.2915 71.8129 16.685 70.1084C15.7288 67.7394 15.1984 65.2201 15.1183 62.6667C15.1183 58.75 14.8833 57.3009 14.8833 47C14.8833 36.6992 14.8833 35.25 15.1183 31.3334C15.1359 28.7917 15.5999 26.2728 16.4892 23.8917C17.1787 22.2385 18.237 20.7649 19.5833 19.5834C20.7733 18.2367 22.2439 17.1672 23.8917 16.45C26.2791 15.5885 28.7953 15.1383 31.3333 15.1184C35.25 15.1184 36.6992 14.8834 47 14.8834C57.3008 14.8834 58.75 14.8834 62.6667 15.1184C65.1528 15.1469 67.6162 15.5972 69.9517 16.45C71.7315 17.1106 73.329 18.1845 74.6125 19.5834C75.896 20.7865 76.8989 22.2574 77.55 23.8917C78.4205 26.2767 78.871 28.7945 78.8817 31.3334C79.0775 35.25 79.1167 36.6992 79.1167 47C79.1167 57.3009 79.0775 58.75 78.8817 62.6667ZM47 26.9075C43.0277 26.9153 39.1469 28.1003 35.8479 30.3128C32.5489 32.5253 29.9796 35.666 28.4649 39.3381C26.9501 43.0102 26.5578 47.0489 27.3375 50.9438C28.1172 54.8388 30.0339 58.4153 32.8455 61.2214C35.657 64.0274 39.2372 65.9372 43.1337 66.7093C47.0302 67.4814 51.0681 67.0812 54.7372 65.5593C58.4064 64.0374 61.5421 61.4621 63.7482 58.1588C65.9542 54.8554 67.1316 50.9723 67.1317 47C67.1368 44.3567 66.6194 41.7384 65.609 39.2958C64.5987 36.8532 63.1153 34.6344 61.2444 32.7671C59.3735 30.8998 57.1518 29.4208 54.7072 28.4152C52.2626 27.4096 49.6433 26.8972 47 26.9075ZM47 60.0425C44.4204 60.0425 41.8988 59.2776 39.754 57.8445C37.6091 56.4114 35.9375 54.3744 34.9503 51.9912C33.9631 49.608 33.7049 46.9856 34.2081 44.4556C34.7113 41.9256 35.9535 39.6016 37.7776 37.7776C39.6016 35.9536 41.9255 34.7114 44.4555 34.2081C46.9855 33.7049 49.6079 33.9632 51.9911 34.9503C54.3743 35.9375 56.4113 37.6092 57.8444 39.754C59.2776 41.8988 60.0425 44.4205 60.0425 47C60.0425 48.7128 59.7051 50.4088 59.0497 51.9912C58.3942 53.5736 57.4335 55.0114 56.2224 56.2225C55.0113 57.4336 53.5735 58.3943 51.9911 59.0497C50.4088 59.7052 48.7128 60.0425 47 60.0425Z" fill="white"/>
</svg>
