<svg width="122" height="119" viewBox="0 0 122 90" fill="none" xmlns="http://www.w3.org/2000/svg">
<path d="M40.5 58.7917C40.5 60.1067 41.0356 61.3679 41.9889 62.2977C42.9422 63.2276 44.2351 63.75 45.5833 63.75H76.0833C77.4315 63.75 78.7245 63.2276 79.6778 62.2977C80.6311 61.3679 81.1667 60.1067 81.1667 58.7917C81.1667 57.4766 80.6311 56.2155 79.6778 55.2856C78.7245 54.3557 77.4315 53.8333 76.0833 53.8333H45.5833C44.2351 53.8333 42.9422 54.3557 41.9889 55.2856C41.0356 56.2155 40.5 57.4766 40.5 58.7917ZM50.6667 73.6667H35.4167C31.3721 73.6667 27.4932 72.0995 24.6333 69.3099C21.7734 66.5203 20.1667 62.7368 20.1667 58.7917C20.1667 54.8466 21.7734 51.0631 24.6333 48.2735C27.4932 45.4838 31.3721 43.9167 35.4167 43.9167H50.6667C52.0148 43.9167 53.3078 43.3943 54.2611 42.4644C55.2144 41.5345 55.75 40.2734 55.75 38.9583C55.75 37.6433 55.2144 36.3821 54.2611 35.4523C53.3078 34.5224 52.0148 34 50.6667 34H35.4167C28.6757 34 22.2109 36.612 17.4444 41.2613C12.6778 45.9106 10 52.2165 10 58.7917C10 65.3668 12.6778 71.6727 17.4444 76.322C22.2109 80.9714 28.6757 83.5833 35.4167 83.5833H50.6667C52.0148 83.5833 53.3078 83.0609 54.2611 82.1311C55.2144 81.2012 55.75 79.94 55.75 78.625C55.75 77.31 55.2144 76.0488 54.2611 75.1189C53.3078 74.1891 52.0148 73.6667 50.6667 73.6667ZM86.25 34H71C69.6518 34 68.3588 34.5224 67.4055 35.4523C66.4522 36.3821 65.9167 37.6433 65.9167 38.9583C65.9167 40.2734 66.4522 41.5345 67.4055 42.4644C68.3588 43.3943 69.6518 43.9167 71 43.9167H86.25C90.2945 43.9167 94.1734 45.4838 97.0334 48.2735C99.8933 51.0631 101.5 54.8466 101.5 58.7917C101.5 62.7368 99.8933 66.5203 97.0334 69.3099C94.1734 72.0995 90.2945 73.6667 86.25 73.6667H71C69.6518 73.6667 68.3588 74.1891 67.4055 75.1189C66.4522 76.0488 65.9167 77.31 65.9167 78.625C65.9167 79.94 66.4522 81.2012 67.4055 82.1311C68.3588 83.0609 69.6518 83.5833 71 83.5833H86.25C92.9909 83.5833 99.4557 80.9714 104.222 76.322C108.989 71.6727 111.667 65.3668 111.667 58.7917C111.667 52.2165 108.989 45.9106 104.222 41.2613C99.4557 36.612 92.9909 34 86.25 34Z" fill="white"/>
</svg>
