<svg width="1150" height="1135" viewBox="0 0 1150 1135" fill="none" xmlns="http://www.w3.org/2000/svg">
<circle cx="575" cy="568" r="483" fill="black"/>
<g filter="url(#filter0_di_426_153)">
<path d="M444.5 416.56C450.66 408.72 456.68 403.54 462.56 401.02C468.44 398.5 473.2 398.36 476.84 400.6C480.76 402.56 483.14 406.62 483.98 412.78C485.1 418.66 483.98 426.22 480.62 435.46C480.06 437.14 478.1 442.32 474.74 451C471.66 459.4 467.6 470.46 462.56 484.18C457.8 497.62 452.48 513.3 446.6 531.22C440.72 549.14 434.7 568.32 428.54 588.76C422.38 609.2 416.22 630.48 410.06 652.6C404.18 674.72 398.86 696.98 394.1 719.38C389.34 741.78 385.28 763.76 381.92 785.32C378.84 806.88 376.88 827.32 376.04 846.64C375.76 851.4 376.04 854.34 376.88 855.46C378 856.86 379.26 857.14 380.66 856.3C382.34 855.46 384.02 853.92 385.7 851.68C387.66 849.44 389.34 847.2 390.74 844.96C391.3 844.12 394.52 838.52 400.4 828.16C406.28 818.08 414.12 804.5 423.92 787.42C434 770.34 445.76 750.46 459.2 727.78C472.64 704.82 487.06 680.32 502.46 654.28C518.14 628.24 534.52 601.08 551.6 572.8C568.68 544.24 585.9 515.96 603.26 487.96C620.62 459.68 637.84 432.24 654.92 405.64C672.28 379.04 688.66 354.26 704.06 331.3C719.74 308.34 734.16 287.9 747.32 269.98C760.76 251.78 772.52 237.36 782.6 226.72C788.48 220.56 793.8 217.2 798.56 216.64C803.6 216.08 807.38 217.48 809.9 220.84C812.42 224.2 813.12 229.1 812 235.54C811.16 241.98 807.66 249.12 801.5 256.96C760.62 308.48 722.96 358.88 688.52 408.16C654.08 457.44 622.72 504.34 594.44 548.86C566.44 593.1 541.24 634.4 518.84 672.76C496.72 710.84 477.26 744.58 460.46 773.98C443.66 803.1 429.52 827.18 418.04 846.22C406.56 865.54 397.46 878.28 390.74 884.44C385.14 889.76 379.68 892.98 374.36 894.1C369.32 895.22 364.84 894.94 360.92 893.26C357.28 891.58 354.34 888.92 352.1 885.28C349.86 881.92 348.74 878.14 348.74 873.94C349.02 863.86 350.42 849.72 352.94 831.52C355.46 813.32 358.68 792.88 362.6 770.2C366.8 747.24 371.56 722.88 376.88 697.12C382.2 671.08 387.66 645.32 393.26 619.84C398.86 594.08 404.46 569.3 410.06 545.5C415.66 521.7 420.7 500.56 425.18 482.08C429.94 463.6 434 448.48 437.36 436.72C440.72 424.96 443.1 418.24 444.5 416.56Z" fill="#FFC148"/>
</g>
<defs>
<filter id="filter0_di_426_153" x="261.24" y="128.3" width="639.94" height="854.98" filterUnits="userSpaceOnUse" color-interpolation-filters="sRGB">
<feFlood flood-opacity="0" result="BackgroundImageFix"/>
<feColorMatrix in="SourceAlpha" type="matrix" values="0 0 0 0 0 0 0 0 0 0 0 0 0 0 0 0 0 0 127 0" result="hardAlpha"/>
<feOffset/>
<feGaussianBlur stdDeviation="43.75"/>
<feComposite in2="hardAlpha" operator="out"/>
<feColorMatrix type="matrix" values="0 0 0 0 1 0 0 0 0 0.756333 0 0 0 0 0.283333 0 0 0 1 0"/>
<feBlend mode="normal" in2="BackgroundImageFix" result="effect1_dropShadow_426_153"/>
<feBlend mode="normal" in="SourceGraphic" in2="effect1_dropShadow_426_153" result="shape"/>
<feColorMatrix in="SourceAlpha" type="matrix" values="0 0 0 0 0 0 0 0 0 0 0 0 0 0 0 0 0 0 127 0" result="hardAlpha"/>
<feOffset dy="4"/>
<feGaussianBlur stdDeviation="2"/>
<feComposite in2="hardAlpha" operator="arithmetic" k2="-1" k3="1"/>
<feColorMatrix type="matrix" values="0 0 0 0 0 0 0 0 0 0 0 0 0 0 0 0 0 0 0.25 0"/>
<feBlend mode="normal" in2="shape" result="effect2_innerShadow_426_153"/>
</filter>
</defs>
</svg>
